<svg width="372" height="148" viewBox="0 0 372 148" fill="none" xmlns="http://www.w3.org/2000/svg">
<ellipse opacity="0.5" cx="60.4785" cy="14.8" rx="14.8" ry="14.8344" transform="rotate(90 60.4785 14.8)" fill="url(#paint0_linear)"/>
<ellipse opacity="0.5" cx="14.8343" cy="14.8" rx="14.8344" ry="14.8" transform="rotate(180 14.8343 14.8)" fill="url(#paint1_linear)"/>
<ellipse opacity="0.5" cx="151.767" cy="14.8" rx="14.8344" ry="14.8" fill="url(#paint2_linear)"/>
<ellipse opacity="0.5" cx="106.123" cy="14.8" rx="14.8" ry="14.8344" transform="rotate(-90 106.123 14.8)" fill="url(#paint3_linear)"/>
<ellipse opacity="0.5" cx="243.055" cy="14.8" rx="14.8" ry="14.8344" transform="rotate(90 243.055 14.8)" fill="url(#paint4_linear)"/>
<ellipse opacity="0.5" cx="197.411" cy="14.8" rx="14.8344" ry="14.8" transform="rotate(180 197.411 14.8)" fill="url(#paint5_linear)"/>
<ellipse opacity="0.5" cx="334.344" cy="14.8" rx="14.8344" ry="14.8" fill="url(#paint6_linear)"/>
<ellipse opacity="0.5" cx="288.699" cy="14.8" rx="14.8" ry="14.8344" transform="rotate(-90 288.699 14.8)" fill="url(#paint7_linear)"/>
<ellipse opacity="0.5" cx="60.4785" cy="110.431" rx="14.8" ry="14.8344" transform="rotate(90 60.4785 110.431)" fill="url(#paint8_linear)"/>
<ellipse opacity="0.5" cx="14.8343" cy="110.431" rx="14.8344" ry="14.8" transform="rotate(180 14.8343 110.431)" fill="url(#paint9_linear)"/>
<ellipse opacity="0.5" cx="151.767" cy="110.431" rx="14.8344" ry="14.8" fill="url(#paint10_linear)"/>
<ellipse opacity="0.5" cx="106.123" cy="110.431" rx="14.8" ry="14.8344" transform="rotate(-90 106.123 110.431)" fill="url(#paint11_linear)"/>
<ellipse opacity="0.5" cx="243.055" cy="110.431" rx="14.8" ry="14.8344" transform="rotate(90 243.055 110.431)" fill="url(#paint12_linear)"/>
<ellipse opacity="0.5" cx="197.411" cy="110.431" rx="14.8344" ry="14.8" transform="rotate(180 197.411 110.431)" fill="url(#paint13_linear)"/>
<ellipse opacity="0.5" cx="334.344" cy="110.431" rx="14.8344" ry="14.8" fill="url(#paint14_linear)"/>
<ellipse opacity="0.5" cx="288.699" cy="110.431" rx="14.8" ry="14.8344" transform="rotate(-90 288.699 110.431)" fill="url(#paint15_linear)"/>
<ellipse opacity="0.5" cx="60.4785" cy="62.6153" rx="14.8" ry="14.8344" transform="rotate(-90 60.4785 62.6153)" fill="url(#paint16_linear)"/>
<ellipse opacity="0.5" cx="14.8344" cy="62.6154" rx="14.8344" ry="14.8" fill="url(#paint17_linear)"/>
<ellipse opacity="0.5" cx="151.767" cy="62.6154" rx="14.8344" ry="14.8" fill="url(#paint18_linear)"/>
<ellipse opacity="0.5" cx="106.123" cy="62.6154" rx="14.8" ry="14.8344" transform="rotate(90 106.123 62.6154)" fill="url(#paint19_linear)"/>
<ellipse opacity="0.5" cx="243.055" cy="62.6153" rx="14.8" ry="14.8344" transform="rotate(-90 243.055 62.6153)" fill="url(#paint20_linear)"/>
<ellipse opacity="0.5" cx="197.411" cy="62.6154" rx="14.8344" ry="14.8" fill="url(#paint21_linear)"/>
<ellipse opacity="0.5" cx="334.344" cy="62.6154" rx="14.8344" ry="14.8" fill="url(#paint22_linear)"/>
<ellipse opacity="0.5" cx="288.699" cy="62.6154" rx="14.8" ry="14.8344" transform="rotate(90 288.699 62.6154)" fill="url(#paint23_linear)"/>
<ellipse opacity="0.5" cx="83.3007" cy="37.5692" rx="14.8" ry="14.8344" transform="rotate(90 83.3007 37.5692)" fill="url(#paint24_linear)"/>
<ellipse opacity="0.5" cx="37.6565" cy="37.5692" rx="14.8344" ry="14.8" transform="rotate(180 37.6565 37.5692)" fill="url(#paint25_linear)"/>
<ellipse opacity="0.5" cx="174.589" cy="37.5692" rx="14.8344" ry="14.8" fill="url(#paint26_linear)"/>
<ellipse opacity="0.5" cx="128.945" cy="37.5692" rx="14.8" ry="14.8344" transform="rotate(-90 128.945 37.5692)" fill="url(#paint27_linear)"/>
<ellipse opacity="0.5" cx="265.877" cy="37.5692" rx="14.8" ry="14.8344" transform="rotate(90 265.877 37.5692)" fill="url(#paint28_linear)"/>
<ellipse opacity="0.5" cx="220.233" cy="37.5692" rx="14.8344" ry="14.8" transform="rotate(180 220.233 37.5692)" fill="url(#paint29_linear)"/>
<ellipse opacity="0.5" cx="357.166" cy="37.5692" rx="14.8344" ry="14.8" fill="url(#paint30_linear)"/>
<ellipse opacity="0.5" cx="311.522" cy="37.5692" rx="14.8" ry="14.8344" transform="rotate(-90 311.522 37.5692)" fill="url(#paint31_linear)"/>
<ellipse opacity="0.5" cx="83.3007" cy="133.2" rx="14.8" ry="14.8344" transform="rotate(90 83.3007 133.2)" fill="url(#paint32_linear)"/>
<ellipse opacity="0.5" cx="37.6565" cy="133.2" rx="14.8344" ry="14.8" transform="rotate(180 37.6565 133.2)" fill="url(#paint33_linear)"/>
<ellipse opacity="0.5" cx="174.589" cy="133.2" rx="14.8344" ry="14.8" fill="url(#paint34_linear)"/>
<ellipse opacity="0.5" cx="128.945" cy="133.2" rx="14.8" ry="14.8344" transform="rotate(-90 128.945 133.2)" fill="url(#paint35_linear)"/>
<ellipse opacity="0.5" cx="265.877" cy="133.2" rx="14.8" ry="14.8344" transform="rotate(90 265.877 133.2)" fill="url(#paint36_linear)"/>
<ellipse opacity="0.5" cx="220.233" cy="133.2" rx="14.8344" ry="14.8" transform="rotate(180 220.233 133.2)" fill="url(#paint37_linear)"/>
<ellipse opacity="0.5" cx="357.166" cy="133.2" rx="14.8344" ry="14.8" fill="url(#paint38_linear)"/>
<ellipse opacity="0.5" cx="311.522" cy="133.2" rx="14.8" ry="14.8344" transform="rotate(-90 311.522 133.2)" fill="url(#paint39_linear)"/>
<ellipse opacity="0.5" cx="83.3007" cy="85.3846" rx="14.8" ry="14.8344" transform="rotate(-90 83.3007 85.3846)" fill="url(#paint40_linear)"/>
<ellipse opacity="0.5" cx="37.6565" cy="85.3846" rx="14.8344" ry="14.8" fill="url(#paint41_linear)"/>
<ellipse opacity="0.5" cx="174.589" cy="85.3846" rx="14.8344" ry="14.8" fill="url(#paint42_linear)"/>
<ellipse opacity="0.5" cx="128.945" cy="85.3846" rx="14.8" ry="14.8344" transform="rotate(90 128.945 85.3846)" fill="url(#paint43_linear)"/>
<ellipse opacity="0.5" cx="265.877" cy="85.3846" rx="14.8" ry="14.8344" transform="rotate(-90 265.877 85.3846)" fill="url(#paint44_linear)"/>
<ellipse opacity="0.5" cx="220.233" cy="85.3846" rx="14.8344" ry="14.8" fill="url(#paint45_linear)"/>
<ellipse opacity="0.5" cx="357.166" cy="85.3846" rx="14.8344" ry="14.8" fill="url(#paint46_linear)"/>
<ellipse opacity="0.5" cx="311.522" cy="85.3846" rx="14.8" ry="14.8344" transform="rotate(90 311.522 85.3846)" fill="url(#paint47_linear)"/>
<defs>
<linearGradient id="paint0_linear" x1="45.7937" y1="0.196621" x2="45.7937" y2="29.6344" gradientUnits="userSpaceOnUse">
<stop stop-color="#0989B4" stop-opacity="0.01"/>
<stop offset="0.999399" stop-color="#53FFEE"/>
</linearGradient>
<linearGradient id="paint1_linear" x1="0.115478" y1="0.230417" x2="0.115478" y2="29.6" gradientUnits="userSpaceOnUse">
<stop stop-color="#0989B4" stop-opacity="0.01"/>
<stop offset="0.999399" stop-color="#53FFEE"/>
</linearGradient>
<linearGradient id="paint2_linear" x1="137.048" y1="0.230441" x2="137.048" y2="29.6" gradientUnits="userSpaceOnUse">
<stop stop-color="#0989B4" stop-opacity="0.01"/>
<stop offset="0.999399" stop-color="#53FFEE"/>
</linearGradient>
<linearGradient id="paint3_linear" x1="91.4379" y1="0.196596" x2="91.4379" y2="29.6343" gradientUnits="userSpaceOnUse">
<stop stop-color="#0989B4" stop-opacity="0.01"/>
<stop offset="0.999399" stop-color="#53FFEE"/>
</linearGradient>
<linearGradient id="paint4_linear" x1="228.37" y1="0.196621" x2="228.37" y2="29.6344" gradientUnits="userSpaceOnUse">
<stop stop-color="#0989B4" stop-opacity="0.01"/>
<stop offset="0.999399" stop-color="#53FFEE"/>
</linearGradient>
<linearGradient id="paint5_linear" x1="182.692" y1="0.230417" x2="182.692" y2="29.6" gradientUnits="userSpaceOnUse">
<stop stop-color="#0989B4" stop-opacity="0.01"/>
<stop offset="0.999399" stop-color="#53FFEE"/>
</linearGradient>
<linearGradient id="paint6_linear" x1="319.625" y1="0.230441" x2="319.625" y2="29.6" gradientUnits="userSpaceOnUse">
<stop stop-color="#0989B4" stop-opacity="0.01"/>
<stop offset="0.999399" stop-color="#53FFEE"/>
</linearGradient>
<linearGradient id="paint7_linear" x1="274.015" y1="0.196596" x2="274.015" y2="29.6343" gradientUnits="userSpaceOnUse">
<stop stop-color="#0989B4" stop-opacity="0.01"/>
<stop offset="0.999399" stop-color="#53FFEE"/>
</linearGradient>
<linearGradient id="paint8_linear" x1="45.7937" y1="95.8274" x2="45.7937" y2="125.265" gradientUnits="userSpaceOnUse">
<stop stop-color="#0989B4" stop-opacity="0.01"/>
<stop offset="0.999399" stop-color="#53FFEE"/>
</linearGradient>
<linearGradient id="paint9_linear" x1="0.115478" y1="95.8612" x2="0.115478" y2="125.231" gradientUnits="userSpaceOnUse">
<stop stop-color="#0989B4" stop-opacity="0.01"/>
<stop offset="0.999399" stop-color="#53FFEE"/>
</linearGradient>
<linearGradient id="paint10_linear" x1="137.048" y1="95.8612" x2="137.048" y2="125.231" gradientUnits="userSpaceOnUse">
<stop stop-color="#0989B4" stop-opacity="0.01"/>
<stop offset="0.999399" stop-color="#53FFEE"/>
</linearGradient>
<linearGradient id="paint11_linear" x1="91.4379" y1="95.8274" x2="91.4379" y2="125.265" gradientUnits="userSpaceOnUse">
<stop stop-color="#0989B4" stop-opacity="0.01"/>
<stop offset="0.999399" stop-color="#53FFEE"/>
</linearGradient>
<linearGradient id="paint12_linear" x1="228.37" y1="95.8274" x2="228.37" y2="125.265" gradientUnits="userSpaceOnUse">
<stop stop-color="#0989B4" stop-opacity="0.01"/>
<stop offset="0.999399" stop-color="#53FFEE"/>
</linearGradient>
<linearGradient id="paint13_linear" x1="182.692" y1="95.8612" x2="182.692" y2="125.231" gradientUnits="userSpaceOnUse">
<stop stop-color="#0989B4" stop-opacity="0.01"/>
<stop offset="0.999399" stop-color="#53FFEE"/>
</linearGradient>
<linearGradient id="paint14_linear" x1="319.625" y1="95.8612" x2="319.625" y2="125.231" gradientUnits="userSpaceOnUse">
<stop stop-color="#0989B4" stop-opacity="0.01"/>
<stop offset="0.999399" stop-color="#53FFEE"/>
</linearGradient>
<linearGradient id="paint15_linear" x1="274.015" y1="95.8274" x2="274.015" y2="125.265" gradientUnits="userSpaceOnUse">
<stop stop-color="#0989B4" stop-opacity="0.01"/>
<stop offset="0.999399" stop-color="#53FFEE"/>
</linearGradient>
<linearGradient id="paint16_linear" x1="45.7937" y1="48.012" x2="45.7937" y2="77.4497" gradientUnits="userSpaceOnUse">
<stop stop-color="#0989B4" stop-opacity="0.01"/>
<stop offset="0.999399" stop-color="#53FFEE"/>
</linearGradient>
<linearGradient id="paint17_linear" x1="0.115488" y1="48.0458" x2="0.115488" y2="77.4154" gradientUnits="userSpaceOnUse">
<stop stop-color="#0989B4" stop-opacity="0.01"/>
<stop offset="0.999399" stop-color="#53FFEE"/>
</linearGradient>
<linearGradient id="paint18_linear" x1="137.048" y1="48.0458" x2="137.048" y2="77.4154" gradientUnits="userSpaceOnUse">
<stop stop-color="#0989B4" stop-opacity="0.01"/>
<stop offset="0.999399" stop-color="#53FFEE"/>
</linearGradient>
<linearGradient id="paint19_linear" x1="91.4379" y1="48.012" x2="91.4379" y2="77.4497" gradientUnits="userSpaceOnUse">
<stop stop-color="#0989B4" stop-opacity="0.01"/>
<stop offset="0.999399" stop-color="#53FFEE"/>
</linearGradient>
<linearGradient id="paint20_linear" x1="228.37" y1="48.012" x2="228.37" y2="77.4497" gradientUnits="userSpaceOnUse">
<stop stop-color="#0989B4" stop-opacity="0.01"/>
<stop offset="0.999399" stop-color="#53FFEE"/>
</linearGradient>
<linearGradient id="paint21_linear" x1="182.692" y1="48.0458" x2="182.692" y2="77.4154" gradientUnits="userSpaceOnUse">
<stop stop-color="#0989B4" stop-opacity="0.01"/>
<stop offset="0.999399" stop-color="#53FFEE"/>
</linearGradient>
<linearGradient id="paint22_linear" x1="319.625" y1="48.0458" x2="319.625" y2="77.4154" gradientUnits="userSpaceOnUse">
<stop stop-color="#0989B4" stop-opacity="0.01"/>
<stop offset="0.999399" stop-color="#53FFEE"/>
</linearGradient>
<linearGradient id="paint23_linear" x1="274.015" y1="48.012" x2="274.015" y2="77.4497" gradientUnits="userSpaceOnUse">
<stop stop-color="#0989B4" stop-opacity="0.01"/>
<stop offset="0.999399" stop-color="#53FFEE"/>
</linearGradient>
<linearGradient id="paint24_linear" x1="68.6159" y1="22.9658" x2="68.6159" y2="52.4036" gradientUnits="userSpaceOnUse">
<stop stop-color="#0989B4" stop-opacity="0.01"/>
<stop offset="0.999399" stop-color="#53FFEE"/>
</linearGradient>
<linearGradient id="paint25_linear" x1="22.9376" y1="22.9996" x2="22.9376" y2="52.3692" gradientUnits="userSpaceOnUse">
<stop stop-color="#0989B4" stop-opacity="0.01"/>
<stop offset="0.999399" stop-color="#53FFEE"/>
</linearGradient>
<linearGradient id="paint26_linear" x1="159.87" y1="22.9997" x2="159.87" y2="52.3692" gradientUnits="userSpaceOnUse">
<stop stop-color="#0989B4" stop-opacity="0.01"/>
<stop offset="0.999399" stop-color="#53FFEE"/>
</linearGradient>
<linearGradient id="paint27_linear" x1="114.26" y1="22.9658" x2="114.26" y2="52.4036" gradientUnits="userSpaceOnUse">
<stop stop-color="#0989B4" stop-opacity="0.01"/>
<stop offset="0.999399" stop-color="#53FFEE"/>
</linearGradient>
<linearGradient id="paint28_linear" x1="251.193" y1="22.9658" x2="251.193" y2="52.4036" gradientUnits="userSpaceOnUse">
<stop stop-color="#0989B4" stop-opacity="0.01"/>
<stop offset="0.999399" stop-color="#53FFEE"/>
</linearGradient>
<linearGradient id="paint29_linear" x1="205.514" y1="22.9996" x2="205.514" y2="52.3692" gradientUnits="userSpaceOnUse">
<stop stop-color="#0989B4" stop-opacity="0.01"/>
<stop offset="0.999399" stop-color="#53FFEE"/>
</linearGradient>
<linearGradient id="paint30_linear" x1="342.447" y1="22.9997" x2="342.447" y2="52.3692" gradientUnits="userSpaceOnUse">
<stop stop-color="#0989B4" stop-opacity="0.01"/>
<stop offset="0.999399" stop-color="#53FFEE"/>
</linearGradient>
<linearGradient id="paint31_linear" x1="296.837" y1="22.9658" x2="296.837" y2="52.4036" gradientUnits="userSpaceOnUse">
<stop stop-color="#0989B4" stop-opacity="0.01"/>
<stop offset="0.999399" stop-color="#53FFEE"/>
</linearGradient>
<linearGradient id="paint32_linear" x1="68.6159" y1="118.597" x2="68.6159" y2="148.034" gradientUnits="userSpaceOnUse">
<stop stop-color="#0989B4" stop-opacity="0.01"/>
<stop offset="0.999399" stop-color="#53FFEE"/>
</linearGradient>
<linearGradient id="paint33_linear" x1="22.9376" y1="118.63" x2="22.9376" y2="148" gradientUnits="userSpaceOnUse">
<stop stop-color="#0989B4" stop-opacity="0.01"/>
<stop offset="0.999399" stop-color="#53FFEE"/>
</linearGradient>
<linearGradient id="paint34_linear" x1="159.87" y1="118.63" x2="159.87" y2="148" gradientUnits="userSpaceOnUse">
<stop stop-color="#0989B4" stop-opacity="0.01"/>
<stop offset="0.999399" stop-color="#53FFEE"/>
</linearGradient>
<linearGradient id="paint35_linear" x1="114.26" y1="118.597" x2="114.26" y2="148.034" gradientUnits="userSpaceOnUse">
<stop stop-color="#0989B4" stop-opacity="0.01"/>
<stop offset="0.999399" stop-color="#53FFEE"/>
</linearGradient>
<linearGradient id="paint36_linear" x1="251.193" y1="118.597" x2="251.193" y2="148.034" gradientUnits="userSpaceOnUse">
<stop stop-color="#0989B4" stop-opacity="0.01"/>
<stop offset="0.999399" stop-color="#53FFEE"/>
</linearGradient>
<linearGradient id="paint37_linear" x1="205.514" y1="118.63" x2="205.514" y2="148" gradientUnits="userSpaceOnUse">
<stop stop-color="#0989B4" stop-opacity="0.01"/>
<stop offset="0.999399" stop-color="#53FFEE"/>
</linearGradient>
<linearGradient id="paint38_linear" x1="342.447" y1="118.63" x2="342.447" y2="148" gradientUnits="userSpaceOnUse">
<stop stop-color="#0989B4" stop-opacity="0.01"/>
<stop offset="0.999399" stop-color="#53FFEE"/>
</linearGradient>
<linearGradient id="paint39_linear" x1="296.837" y1="118.597" x2="296.837" y2="148.034" gradientUnits="userSpaceOnUse">
<stop stop-color="#0989B4" stop-opacity="0.01"/>
<stop offset="0.999399" stop-color="#53FFEE"/>
</linearGradient>
<linearGradient id="paint40_linear" x1="68.6159" y1="70.7812" x2="68.6159" y2="100.219" gradientUnits="userSpaceOnUse">
<stop stop-color="#0989B4" stop-opacity="0.01"/>
<stop offset="0.999399" stop-color="#53FFEE"/>
</linearGradient>
<linearGradient id="paint41_linear" x1="22.9376" y1="70.815" x2="22.9376" y2="100.185" gradientUnits="userSpaceOnUse">
<stop stop-color="#0989B4" stop-opacity="0.01"/>
<stop offset="0.999399" stop-color="#53FFEE"/>
</linearGradient>
<linearGradient id="paint42_linear" x1="159.87" y1="70.815" x2="159.87" y2="100.185" gradientUnits="userSpaceOnUse">
<stop stop-color="#0989B4" stop-opacity="0.01"/>
<stop offset="0.999399" stop-color="#53FFEE"/>
</linearGradient>
<linearGradient id="paint43_linear" x1="114.26" y1="70.7812" x2="114.26" y2="100.219" gradientUnits="userSpaceOnUse">
<stop stop-color="#0989B4" stop-opacity="0.01"/>
<stop offset="0.999399" stop-color="#53FFEE"/>
</linearGradient>
<linearGradient id="paint44_linear" x1="251.193" y1="70.7812" x2="251.193" y2="100.219" gradientUnits="userSpaceOnUse">
<stop stop-color="#0989B4" stop-opacity="0.01"/>
<stop offset="0.999399" stop-color="#53FFEE"/>
</linearGradient>
<linearGradient id="paint45_linear" x1="205.514" y1="70.815" x2="205.514" y2="100.185" gradientUnits="userSpaceOnUse">
<stop stop-color="#0989B4" stop-opacity="0.01"/>
<stop offset="0.999399" stop-color="#53FFEE"/>
</linearGradient>
<linearGradient id="paint46_linear" x1="342.447" y1="70.815" x2="342.447" y2="100.185" gradientUnits="userSpaceOnUse">
<stop stop-color="#0989B4" stop-opacity="0.01"/>
<stop offset="0.999399" stop-color="#53FFEE"/>
</linearGradient>
<linearGradient id="paint47_linear" x1="296.837" y1="70.7812" x2="296.837" y2="100.219" gradientUnits="userSpaceOnUse">
<stop stop-color="#0989B4" stop-opacity="0.01"/>
<stop offset="0.999399" stop-color="#53FFEE"/>
</linearGradient>
</defs>
</svg>
